Patient4_TMGait_0pt5_01_left_15_EMG.mot
version=1
nRows=16
nColumns=33
inDegrees=no
endheader
time	1LAddLong	2LGlutMax	3LGlutMed	4LIliopsoas	5LSemiMemb	6LBicFemLong	7LRecFem	8LVastMed	9LVastLat	10LGasMed	11LTibAnt	12lTibPost	13LPeroneusLong	14LSol	15LExtDigLong	16LFlexDigLong	17RAddLong	18RGlutMax	19RGlutMed	20RIliopsoas	21RSemiMemb	22RBicFemLong	23RRecFem	24RVastMed	25RVastLat	26RGasMed	27RTibAnt	28RTibPost	29RPeroneusLong	30RSol	31RExtDigLong	32RFlexDigLong
21.46	0	0.046387	-0.053253	0.001373	-0.016022	-0.040741	-0.015106	0.007935	0.081635	-0.001221	0.023956	0.004272	0.061035	-0.00824	-0.006104	-0.010681	0.014191	0.087585	-0.15762	-0.004578	-0.027008	-0.021667	-0.065002	0.23209	0.039673	0.02243	-0.77576	0.005188	-0.76019	0.10193	-0.007324	0.000305
21.461	0.005493	0.049133	-0.10132	-0.006866	0.042267	-0.039215	-0.013733	0.005646	0.071564	-0.024414	0.014801	-0.000153	0.064697	-0.00824	-0.00885	-0.00885	0.006256	0.1265	-0.026398	0.06012	-0.014496	-0.002441	0.005951	0.1445	0.009613	0.011292	-0.30182	0.003204	-0.56305	0.11414	-0.001831	-0.00061
21.462	0.007782	0.056915	-0.095062	-0.008392	0.054474	-0.038147	-0.015564	0.007477	0.079651	-0.027466	0.009308	0.005798	0.050201	-0.033722	0.000763	-0.006409	-0.001526	0.12955	0.007324	0.081787	-0.004425	-0.027618	0.041199	0.1384	0.039673	0.014038	0.14313	0.003204	0.29282	0.045929	-0.002289	-0.007019
21.463	-0.007629	0.045013	-0.047455	0.023193	0.007324	-0.021362	-0.031281	0.005188	0.070953	-0.03418	0.010986	0.005188	0.050812	-0.042419	-0.000916	-0.020294	-0.003662	0.087585	0.10819	0.009155	-0.009766	0.005035	0.026093	0.071259	0.057678	0.015411	0.3067	0.005646	0.5481	-0.084534	-0.002136	-0.006714
21.464	0.003967	0.030212	-0.044403	0.008698	-0.015259	0.011139	-0.006866	0.003815	0.081329	-0.01236	0.017548	-0.001068	0.036163	-0.009766	-0.005798	0.001984	-0.002747	0.066528	0.099335	0.010529	0.001526	0.005951	0.096588	0.025177	0.051422	0.016327	0.18845	0.004578	0.42694	-0.078125	-0.010223	0.001678
21.465	-0.00885	0.00946	-0.069427	0.021057	-0.000763	0.031586	-0.012817	0.012207	0.072327	-0.026093	0.014191	0.00061	0.034485	-0.026093	0.000458	0.006409	0.001526	0.066376	0.050354	0.03067	0.014343	-0.006561	0.093079	-0.025482	0.018311	0.014648	-0.1181	0.001221	0.49149	0.046082	-0.003052	0.000153
21.466	-0.015411	0.005646	-0.031586	0.004883	-0.015106	0.045013	-0.004578	0.007477	0.069885	-0.032959	0.014496	0.002747	0.053253	-0.065765	0.000458	-0.007935	-0.005951	0.08606	-0.080261	0.007629	0.005188	0.005951	0.083466	-0.069733	0.021057	0.009308	-0.38025	0.001984	-0.099945	0.080719	-0.006409	-0.002899
21.467	0.010834	0.018311	-0.017395	-0.002747	-0.013123	0.044708	-0.000458	0.012054	0.060425	-0.019989	0.011902	0.001373	0.041046	-0.057373	-0.008392	-0.0177	0.003357	0.081024	0.11215	-0.10757	-0.001373	0.001831	0.080566	-0.069885	0.030212	0.019379	-0.96817	0.003052	-0.091248	0.12726	0.002594	0.001221
21.468	0.010834	0.018921	-0.016327	0.001678	0.029907	0.050049	-0.008392	0.005951	0.042877	-0.032806	0.011292	0.005188	0.006256	-0.035248	-0.007172	-0.013428	0.007935	0.078583	0.16129	-0.083618	-0.002441	-0.02243	0.14999	-0.043793	0.031281	0.015106	-0.57053	0.002594	-0.23254	0.12054	-0.004578	0.001678
21.469	0.007477	0.032501	-0.043182	0.008698	0.014496	0.011902	-0.005035	0.010986	0.034637	-0.042267	0.011749	0.00824	0.040283	-0.006104	-0.00061	-0.004578	0.001526	0.13046	0.25345	-0.03891	0.010986	-0.013275	0.14114	-0.009613	0.040588	0.012207	0.14954	-0.000153	-0.66422	0.086212	-0.006714	-0.006561
21.47	0.008698	0.012817	-0.061798	0.003815	0.014954	0.011292	0.007935	0.008392	0.035095	-0.042725	0.002899	-0.001221	0.069122	-0.025482	-0.003967	-0.004425	0.011597	0.067444	0.3865	0.028992	0.005646	-0.030212	0.068054	-0.007629	0.057678	0.014191	0.38711	0.001373	-1.1244	0.079498	-0.003357	-0.018768
21.471	0.00061	0.011139	-0.004272	0.009155	-0.053406	-0.011597	-0.001373	0.009613	0.033569	-0.029449	0.005493	0.001526	0.077362	-0.02243	-0.001831	0.002136	0.011292	0.070953	0.27039	0.087891	-0.002899	-0.000305	0.032959	-0.021362	0.032654	0.013275	0.18906	0.003357	0.062714	0.045319	-0.001678	-0.007935
21.472	0.003815	0.032196	0.067291	0.003662	-0.15106	-0.054016	0.011292	0.007935	0.043793	-0.021973	0.014496	0.001373	0.058746	-0.008698	-0.005798	-0.005646	0.008087	0.000458	-0.10223	0.11124	-0.031891	-0.030212	0.033112	-0.083771	0.000763	0.01358	-0.016174	-0.002136	0.8548	-0.018768	-0.001526	-0.005493
21.473	0.002136	-0.036163	0.048523	0.013885	-0.045776	-0.067139	-0.01297	-0.000458	0.058441	-0.02655	0.007477	-0.000763	0.047913	0.02533	-0.007019	0.004578	0.006256	0.087891	0.19501	0.074005	-0.033569	-0.032501	0.006104	-0.14862	-0.027771	-0.001221	0.072937	0.006104	0.1416	-0.016937	-0.003204	-0.008087
21.474	0.014648	-0.028381	0.031281	0.01297	0.065308	-0.058746	-0.01297	0.005798	0.050201	-0.012512	0.02243	-0.001373	0.043945	0.037079	-0.007019	0.004425	0.005951	0.041962	0.11643	0.028992	-0.02182	-0.016022	0.00824	-0.2298	-0.068512	-0.007782	0.21393	0.002441	-0.22507	0.007324	-0.00885	-0.011444
21.475	0.020752	-0.043488	-0.00061	0	0.11307	-0.032043	-0.008698	0.006256	0.044098	-0.020599	0.008392	0.005951	0.033722	0.066071	0.008698	0.000153	-0.001831	0.012054	0.16937	-0.001678	-0.009308	0	0.048676	-0.31448	-0.17044	-0.006561	0.18585	0.003815	-0.26138	0.026398	-0.002289	-0.012817
